<svg xmlns="http://www.w3.org/2000/svg" xmlns:xlink="http://www.w3.org/1999/xlink" width="500" zoomAndPan="magnify" viewBox="0 0 375 374.999991" height="500" preserveAspectRatio="xMidYMid meet" version="1.0"><defs><clipPath id="f342177f76"><path d="M 87.890625 87.890625 L 287.390625 87.890625 L 287.390625 287.390625 L 87.890625 287.390625 Z M 87.890625 87.890625 " clip-rule="nonzero"/></clipPath></defs><g clip-path="url(#f342177f76)"><path fill="#696969" d="M 187.5 287.109375 C 242.511719 287.109375 287.109375 242.511719 287.109375 187.5 C 287.109375 132.488281 242.511719 87.890625 187.5 87.890625 C 132.488281 87.890625 87.890625 132.488281 87.890625 187.5 C 87.890625 242.511719 132.488281 287.109375 187.5 287.109375 Z M 187.5 134.375 C 175.65625 134.375 164.570312 138.183594 156.394531 145.773438 C 148.15625 153.421875 143.300781 164.511719 143.300781 178.171875 C 143.300781 188.785156 149.171875 200.398438 155.695312 210.238281 C 162.371094 220.316406 170.441406 229.5625 176.144531 235.660156 C 182.335938 242.277344 192.664062 242.277344 198.855469 235.660156 C 204.558594 229.5625 212.628906 220.316406 219.304688 210.238281 C 225.828125 200.398438 231.699219 188.785156 231.699219 178.171875 C 231.699219 164.511719 226.84375 153.421875 218.605469 145.773438 C 210.429688 138.183594 199.34375 134.375 187.5 134.375 Z M 187.5 162 C 181.398438 162 176.449219 166.945312 176.449219 173.046875 C 176.449219 179.148438 181.398438 184.097656 187.5 184.097656 C 193.601562 184.097656 198.550781 179.148438 198.550781 173.046875 C 198.550781 166.945312 193.601562 162 187.5 162 Z M 165.402344 173.046875 C 165.402344 160.84375 175.296875 150.949219 187.5 150.949219 C 199.703125 150.949219 209.597656 160.84375 209.597656 173.046875 C 209.597656 185.253906 199.703125 195.148438 187.5 195.148438 C 175.296875 195.148438 165.402344 185.253906 165.402344 173.046875 Z M 165.402344 173.046875 " fill-opacity="1" fill-rule="evenodd"/></g></svg>