<svg xmlns="http://www.w3.org/2000/svg" xmlns:xlink="http://www.w3.org/1999/xlink" width="500" zoomAndPan="magnify" viewBox="0 0 375 374.999991" height="500" preserveAspectRatio="xMidYMid meet" version="1.0"><defs><clipPath id="0e1862f38e"><path d="M 85.070312 70.4375 L 289.820312 70.4375 L 289.820312 129 L 85.070312 129 Z M 85.070312 70.4375 " clip-rule="nonzero"/></clipPath><clipPath id="ca7096e7ad"><path d="M 99 143 L 276 143 L 276 304.4375 L 99 304.4375 Z M 99 143 " clip-rule="nonzero"/></clipPath></defs><g clip-path="url(#0e1862f38e)"><path fill="#ffffff" d="M 282.609375 99.152344 L 231.394531 99.152344 L 231.394531 77.753906 C 231.394531 73.730469 228.101562 70.4375 224.078125 70.4375 L 150.917969 70.4375 C 146.894531 70.4375 143.601562 73.730469 143.601562 77.753906 L 143.601562 99.152344 L 92.386719 99.152344 C 88.363281 99.152344 85.070312 102.445312 85.070312 106.46875 L 85.070312 121.101562 C 85.070312 125.125 88.363281 128.417969 92.386719 128.417969 L 282.609375 128.417969 C 286.632812 128.417969 289.921875 125.125 289.921875 121.101562 L 289.921875 106.46875 C 289.921875 102.445312 286.632812 99.152344 282.609375 99.152344 Z M 282.609375 99.152344 " fill-opacity="1" fill-rule="nonzero"/></g><g clip-path="url(#ca7096e7ad)"><path fill="#ffffff" d="M 117.261719 298.152344 C 117.628906 301.8125 120.738281 304.554688 124.578125 304.554688 L 250.597656 304.554688 C 254.257812 304.554688 257.367188 301.8125 257.914062 298.152344 L 275.472656 143.78125 L 99.703125 143.78125 Z M 216.761719 274.375 L 229.566406 172.132812 C 230.113281 168.109375 233.773438 165.363281 237.796875 165.730469 C 241.820312 166.277344 244.5625 169.9375 244.199219 173.960938 L 231.394531 276.203125 C 230.847656 279.863281 227.738281 282.605469 224.078125 282.605469 C 223.710938 282.605469 223.53125 282.605469 223.164062 282.605469 C 219.140625 282.058594 216.394531 278.398438 216.761719 274.375 Z M 180.179688 173.046875 C 180.179688 169.023438 183.472656 165.730469 187.496094 165.730469 C 191.519531 165.730469 194.8125 169.023438 194.8125 173.046875 L 194.8125 275.289062 C 194.8125 279.3125 191.519531 282.605469 187.496094 282.605469 C 183.472656 282.605469 180.179688 279.3125 180.179688 275.289062 Z M 137.199219 165.730469 C 141.222656 165.179688 144.882812 168.109375 145.429688 172.132812 L 158.234375 274.375 C 158.78125 278.398438 155.855469 282.058594 151.832031 282.605469 C 151.464844 282.605469 151.28125 282.605469 150.917969 282.605469 C 147.257812 282.605469 144.148438 279.863281 143.601562 276.203125 L 130.796875 173.960938 C 130.429688 169.9375 133.175781 166.277344 137.199219 165.730469 Z M 137.199219 165.730469 " fill-opacity="1" fill-rule="nonzero"/></g></svg>