<svg xmlns="http://www.w3.org/2000/svg" xmlns:xlink="http://www.w3.org/1999/xlink" width="500" zoomAndPan="magnify" viewBox="0 0 375 374.999991" height="500" preserveAspectRatio="xMidYMid meet" version="1.0"><defs><clipPath id="3c5f29864a"><path d="M 249 70.003906 L 309 70.003906 L 309 130 L 249 130 Z M 249 70.003906 " clip-rule="nonzero"/></clipPath><clipPath id="1504d9457c"><path d="M 65.109375 110 L 259 110 L 259 304.753906 L 65.109375 304.753906 Z M 65.109375 110 " clip-rule="nonzero"/></clipPath></defs><g clip-path="url(#3c5f29864a)"><path fill="#ffffff" d="M 305.082031 95.945312 L 283.308594 74.199219 C 281.058594 71.949219 278.101562 70.824219 275.152344 70.824219 C 272.199219 70.824219 269.25 71.945312 267 74.195312 L 249.582031 91.5625 L 287.664062 129.582031 L 305.082031 112.21875 C 309.585938 107.71875 309.585938 100.425781 305.082031 95.945312 Z M 305.082031 95.945312 " fill-opacity="1" fill-rule="nonzero"/></g><path fill="#ffffff" d="M 136.507812 204.425781 L 174.597656 242.449219 L 279.515625 137.726562 L 241.425781 99.703125 Z M 136.507812 204.425781 " fill-opacity="1" fill-rule="nonzero"/><path fill="#ffffff" d="M 128.289062 212.5625 L 120.15625 258.6875 L 166.375 250.582031 Z M 128.289062 212.5625 " fill-opacity="1" fill-rule="nonzero"/><g clip-path="url(#1504d9457c)"><path fill="#ffffff" d="M 233.578125 279.242188 L 89.96875 279.242188 L 89.96875 135.632812 L 191.316406 135.632812 L 216.292969 110.707031 L 81.160156 110.707031 C 72.292969 110.707031 65.039062 117.960938 65.039062 126.828125 L 65.039062 288.050781 C 65.039062 296.917969 72.292969 304.171875 81.160156 304.171875 L 242.382812 304.171875 C 251.25 304.171875 258.503906 296.917969 258.503906 288.050781 L 258.503906 172.785156 L 233.578125 197.667969 Z M 233.578125 279.242188 " fill-opacity="1" fill-rule="nonzero"/></g></svg>