<svg xmlns="http://www.w3.org/2000/svg" xmlns:xlink="http://www.w3.org/1999/xlink" width="500" zoomAndPan="magnify" viewBox="0 0 375 374.999991" height="500" preserveAspectRatio="xMidYMid meet" version="1.0"><defs><clipPath id="18772d5a14"><path d="M 65.332031 65.332031 L 309.832031 65.332031 L 309.832031 309.832031 L 65.332031 309.832031 Z M 65.332031 65.332031 " clip-rule="nonzero"/></clipPath></defs><g clip-path="url(#18772d5a14)"><path fill="#696969" d="M 187.5 65.332031 C 185.5 65.332031 183.503906 65.382812 181.503906 65.480469 C 179.507812 65.578125 177.515625 65.722656 175.527344 65.921875 C 173.535156 66.117188 171.550781 66.359375 169.574219 66.65625 C 167.597656 66.949219 165.628906 67.289062 163.667969 67.679688 C 161.707031 68.070312 159.753906 68.507812 157.816406 68.992188 C 155.875 69.480469 153.949219 70.011719 152.035156 70.59375 C 150.125 71.171875 148.226562 71.800781 146.34375 72.472656 C 144.460938 73.148438 142.59375 73.867188 140.75 74.632812 C 138.902344 75.398438 137.074219 76.207031 135.265625 77.0625 C 133.460938 77.917969 131.671875 78.816406 129.910156 79.757812 C 128.148438 80.699219 126.40625 81.683594 124.691406 82.714844 C 122.976562 83.742188 121.289062 84.808594 119.628906 85.921875 C 117.964844 87.03125 116.332031 88.183594 114.726562 89.375 C 113.117188 90.566406 111.542969 91.792969 109.996094 93.0625 C 108.453125 94.332031 106.9375 95.636719 105.457031 96.980469 C 103.976562 98.320312 102.527344 99.699219 101.113281 101.113281 C 99.699219 102.527344 98.320312 103.976562 96.980469 105.457031 C 95.636719 106.9375 94.332031 108.453125 93.0625 109.996094 C 91.792969 111.542969 90.566406 113.117188 89.375 114.726562 C 88.183594 116.332031 87.03125 117.964844 85.921875 119.628906 C 84.808594 121.289062 83.742188 122.976562 82.714844 124.691406 C 81.683594 126.40625 80.699219 128.148438 79.757812 129.910156 C 78.816406 131.671875 77.917969 133.460938 77.0625 135.265625 C 76.207031 137.074219 75.398438 138.902344 74.632812 140.75 C 73.867188 142.59375 73.148438 144.460938 72.472656 146.34375 C 71.800781 148.226562 71.171875 150.125 70.59375 152.035156 C 70.011719 153.949219 69.480469 155.875 68.992188 157.816406 C 68.507812 159.753906 68.070312 161.707031 67.679688 163.667969 C 67.289062 165.628906 66.949219 167.597656 66.65625 169.574219 C 66.359375 171.550781 66.117188 173.535156 65.921875 175.527344 C 65.722656 177.515625 65.578125 179.507812 65.480469 181.503906 C 65.382812 183.503906 65.332031 185.5 65.332031 187.5 C 65.332031 189.5 65.382812 191.496094 65.480469 193.496094 C 65.578125 195.492188 65.722656 197.484375 65.921875 199.472656 C 66.117188 201.464844 66.359375 203.449219 66.65625 205.425781 C 66.949219 207.402344 67.289062 209.371094 67.679688 211.332031 C 68.070312 213.292969 68.507812 215.246094 68.992188 217.183594 C 69.480469 219.125 70.011719 221.050781 70.59375 222.964844 C 71.171875 224.875 71.800781 226.773438 72.472656 228.65625 C 73.148438 230.539062 73.867188 232.40625 74.632812 234.25 C 75.398438 236.097656 76.207031 237.925781 77.0625 239.734375 C 77.917969 241.539062 78.816406 243.328125 79.757812 245.089844 C 80.699219 246.851562 81.683594 248.59375 82.714844 250.308594 C 83.742188 252.023438 84.808594 253.710938 85.921875 255.371094 C 87.03125 257.035156 88.183594 258.667969 89.375 260.273438 C 90.566406 261.882812 91.792969 263.457031 93.0625 265.003906 C 94.332031 266.546875 95.636719 268.0625 96.980469 269.542969 C 98.320312 271.023438 99.699219 272.472656 101.113281 273.886719 C 102.527344 275.300781 103.976562 276.679688 105.457031 278.019531 C 106.9375 279.363281 108.453125 280.667969 109.996094 281.9375 C 111.542969 283.207031 113.117188 284.433594 114.726562 285.625 C 116.332031 286.816406 117.964844 287.96875 119.628906 289.078125 C 121.289062 290.191406 122.976562 291.257812 124.691406 292.285156 C 126.40625 293.316406 128.148438 294.300781 129.910156 295.242188 C 131.671875 296.183594 133.460938 297.082031 135.265625 297.9375 C 137.074219 298.792969 138.902344 299.601562 140.75 300.367188 C 142.59375 301.132812 144.460938 301.851562 146.34375 302.527344 C 148.226562 303.199219 150.125 303.828125 152.035156 304.40625 C 153.949219 304.988281 155.875 305.519531 157.816406 306.007812 C 159.753906 306.492188 161.707031 306.929688 163.667969 307.320312 C 165.628906 307.710938 167.597656 308.050781 169.574219 308.34375 C 171.550781 308.640625 173.535156 308.882812 175.527344 309.078125 C 177.515625 309.277344 179.507812 309.421875 181.503906 309.519531 C 183.503906 309.617188 185.5 309.667969 187.5 309.667969 C 189.5 309.667969 191.496094 309.617188 193.496094 309.519531 C 195.492188 309.421875 197.484375 309.277344 199.472656 309.078125 C 201.464844 308.882812 203.449219 308.640625 205.425781 308.34375 C 207.402344 308.050781 209.371094 307.710938 211.332031 307.320312 C 213.292969 306.929688 215.246094 306.492188 217.183594 306.007812 C 219.125 305.519531 221.050781 304.988281 222.964844 304.40625 C 224.875 303.828125 226.773438 303.199219 228.65625 302.527344 C 230.539062 301.851562 232.40625 301.132812 234.25 300.367188 C 236.097656 299.601562 237.925781 298.792969 239.734375 297.9375 C 241.539062 297.082031 243.328125 296.183594 245.089844 295.242188 C 246.851562 294.300781 248.59375 293.316406 250.308594 292.285156 C 252.023438 291.257812 253.710938 290.191406 255.371094 289.078125 C 257.035156 287.96875 258.667969 286.816406 260.273438 285.625 C 261.882812 284.433594 263.457031 283.207031 265.003906 281.9375 C 266.546875 280.667969 268.0625 279.363281 269.542969 278.019531 C 271.023438 276.679688 272.472656 275.300781 273.886719 273.886719 C 275.300781 272.472656 276.679688 271.023438 278.019531 269.542969 C 279.363281 268.0625 280.667969 266.546875 281.9375 265.003906 C 283.207031 263.457031 284.433594 261.882812 285.625 260.273438 C 286.816406 258.667969 287.96875 257.035156 289.078125 255.371094 C 290.191406 253.710938 291.257812 252.023438 292.285156 250.308594 C 293.316406 248.59375 294.300781 246.851562 295.242188 245.089844 C 296.183594 243.328125 297.082031 241.539062 297.9375 239.734375 C 298.792969 237.925781 299.601562 236.097656 300.367188 234.25 C 301.132812 232.40625 301.851562 230.539062 302.527344 228.65625 C 303.199219 226.773438 303.828125 224.875 304.40625 222.964844 C 304.988281 221.050781 305.519531 219.125 306.007812 217.183594 C 306.492188 215.246094 306.929688 213.292969 307.320312 211.332031 C 307.710938 209.371094 308.050781 207.402344 308.34375 205.425781 C 308.640625 203.449219 308.882812 201.464844 309.078125 199.472656 C 309.277344 197.484375 309.421875 195.492188 309.519531 193.496094 C 309.617188 191.496094 309.667969 189.5 309.667969 187.5 C 309.667969 185.5 309.617188 183.503906 309.519531 181.503906 C 309.421875 179.507812 309.273438 177.515625 309.078125 175.527344 C 308.882812 173.535156 308.636719 171.550781 308.34375 169.574219 C 308.050781 167.597656 307.707031 165.628906 307.316406 163.667969 C 306.929688 161.707031 306.488281 159.757812 306.003906 157.816406 C 305.519531 155.878906 304.984375 153.953125 304.402344 152.039062 C 303.824219 150.125 303.195312 148.226562 302.523438 146.34375 C 301.847656 144.460938 301.128906 142.597656 300.363281 140.75 C 299.597656 138.902344 298.789062 137.078125 297.933594 135.269531 C 297.078125 133.460938 296.179688 131.675781 295.238281 129.914062 C 294.296875 128.148438 293.308594 126.410156 292.28125 124.695312 C 291.253906 122.980469 290.183594 121.292969 289.074219 119.628906 C 287.964844 117.96875 286.8125 116.335938 285.621094 114.726562 C 284.429688 113.121094 283.199219 111.546875 281.933594 110 C 280.664062 108.457031 279.359375 106.941406 278.015625 105.460938 C 276.671875 103.980469 275.296875 102.53125 273.882812 101.117188 C 272.46875 99.703125 271.019531 98.328125 269.539062 96.984375 C 268.058594 95.640625 266.542969 94.335938 265 93.066406 C 263.453125 91.800781 261.878906 90.570312 260.269531 89.378906 C 258.664062 88.1875 257.03125 87.035156 255.371094 85.925781 C 253.707031 84.816406 252.019531 83.746094 250.304688 82.71875 C 248.589844 81.691406 246.851562 80.703125 245.085938 79.761719 C 243.324219 78.820312 241.539062 77.921875 239.730469 77.066406 C 237.921875 76.210938 236.097656 75.402344 234.25 74.636719 C 232.402344 73.871094 230.539062 73.152344 228.65625 72.476562 C 226.773438 71.804688 224.875 71.175781 222.960938 70.597656 C 221.046875 70.015625 219.121094 69.480469 217.183594 68.996094 C 215.242188 68.511719 213.292969 68.070312 211.332031 67.683594 C 209.371094 67.292969 207.402344 66.949219 205.425781 66.65625 C 203.449219 66.363281 201.464844 66.117188 199.472656 65.921875 C 197.484375 65.726562 195.492188 65.578125 193.496094 65.480469 C 191.496094 65.382812 189.5 65.332031 187.5 65.332031 Z M 131.226562 127.21875 L 243.773438 127.21875 C 244.964844 127.21875 246.148438 127.320312 247.320312 127.53125 C 248.492188 127.742188 249.636719 128.054688 250.753906 128.46875 C 251.871094 128.882812 252.945312 129.390625 253.96875 129.996094 C 254.996094 130.601562 255.960938 131.292969 256.867188 132.066406 C 257.769531 132.84375 258.597656 133.695312 259.347656 134.617188 C 260.101562 135.542969 260.765625 136.527344 261.34375 137.570312 C 261.917969 138.609375 262.398438 139.695312 262.78125 140.824219 C 263.167969 141.953125 263.449219 143.105469 263.625 144.28125 C 262.023438 145.160156 200.175781 180.820312 196.089844 183.148438 C 194.78125 183.890625 193.398438 184.453125 191.941406 184.835938 C 190.484375 185.21875 189.003906 185.410156 187.5 185.410156 C 185.996094 185.410156 184.515625 185.21875 183.058594 184.835938 C 181.601562 184.453125 180.21875 183.890625 178.910156 183.148438 C 174.902344 180.855469 112.902344 145.542969 111.375 144.589844 C 111.535156 143.394531 111.800781 142.226562 112.167969 141.082031 C 112.539062 139.9375 113.007812 138.835938 113.578125 137.777344 C 114.148438 136.714844 114.804688 135.714844 115.554688 134.773438 C 116.304688 133.832031 117.132812 132.964844 118.039062 132.175781 C 118.941406 131.382812 119.910156 130.675781 120.945312 130.058594 C 121.976562 129.441406 123.054688 128.921875 124.183594 128.496094 C 125.308594 128.074219 126.460938 127.753906 127.644531 127.539062 C 128.828125 127.324219 130.023438 127.21875 131.226562 127.21875 Z M 263.855469 227.699219 C 263.855469 228.359375 263.820312 229.015625 263.757812 229.667969 C 263.691406 230.324219 263.59375 230.972656 263.464844 231.617188 C 263.335938 232.261719 263.175781 232.898438 262.984375 233.527344 C 262.792969 234.15625 262.570312 234.773438 262.320312 235.382812 C 262.066406 235.988281 261.785156 236.582031 261.476562 237.164062 C 261.167969 237.742188 260.828125 238.304688 260.464844 238.851562 C 260.097656 239.398438 259.707031 239.925781 259.289062 240.433594 C 258.871094 240.941406 258.429688 241.429688 257.964844 241.894531 C 257.5 242.359375 257.015625 242.800781 256.507812 243.214844 C 256 243.632812 255.472656 244.023438 254.925781 244.390625 C 254.378906 244.753906 253.816406 245.09375 253.234375 245.402344 C 252.65625 245.714844 252.0625 245.996094 251.453125 246.246094 C 250.847656 246.5 250.230469 246.722656 249.601562 246.910156 C 248.972656 247.101562 248.335938 247.261719 247.691406 247.390625 C 247.042969 247.519531 246.394531 247.617188 245.742188 247.683594 C 245.085938 247.75 244.429688 247.78125 243.773438 247.78125 L 131.226562 247.78125 C 130.570312 247.78125 129.914062 247.75 129.257812 247.683594 C 128.605469 247.617188 127.957031 247.519531 127.308594 247.390625 C 126.664062 247.261719 126.027344 247.101562 125.398438 246.910156 C 124.769531 246.722656 124.152344 246.5 123.546875 246.246094 C 122.9375 245.996094 122.34375 245.714844 121.765625 245.402344 C 121.183594 245.09375 120.621094 244.753906 120.074219 244.390625 C 119.527344 244.023438 119 243.632812 118.492188 243.214844 C 117.984375 242.800781 117.5 242.359375 117.035156 241.894531 C 116.570312 241.429688 116.128906 240.941406 115.710938 240.433594 C 115.292969 239.925781 114.902344 239.398438 114.535156 238.851562 C 114.171875 238.304688 113.832031 237.742188 113.523438 237.164062 C 113.214844 236.582031 112.933594 235.988281 112.679688 235.382812 C 112.429688 234.773438 112.207031 234.15625 112.015625 233.527344 C 111.824219 232.898438 111.664062 232.261719 111.535156 231.617188 C 111.40625 230.972656 111.308594 230.324219 111.242188 229.667969 C 111.179688 229.015625 111.144531 228.359375 111.144531 227.699219 L 111.144531 153.714844 L 174.976562 190.132812 C 175.929688 190.675781 176.910156 191.15625 177.925781 191.570312 C 178.9375 191.984375 179.972656 192.332031 181.03125 192.609375 C 182.089844 192.890625 183.164062 193.101562 184.25 193.242188 C 185.335938 193.386719 186.425781 193.457031 187.519531 193.457031 C 188.613281 193.457031 189.703125 193.386719 190.789062 193.242188 C 191.875 193.101562 192.949219 192.890625 194.007812 192.609375 C 195.0625 192.332031 196.101562 191.984375 197.113281 191.570312 C 198.125 191.15625 199.109375 190.675781 200.058594 190.132812 L 263.855469 153.40625 Z M 263.855469 227.699219 " fill-opacity="1" fill-rule="nonzero"/></g></svg>