<svg xmlns="http://www.w3.org/2000/svg" xmlns:xlink="http://www.w3.org/1999/xlink" width="500" zoomAndPan="magnify" viewBox="0 0 375 374.999991" height="500" preserveAspectRatio="xMidYMid meet" version="1.0"><defs><clipPath id="a3df6db145"><path d="M 87.898438 71.34375 L 287.398438 71.34375 L 287.398438 271 L 87.898438 271 Z M 87.898438 71.34375 " clip-rule="nonzero"/></clipPath></defs><g clip-path="url(#a3df6db145)"><path fill="#696969" d="M 187.496094 71.410156 C 185.863281 71.410156 184.234375 71.453125 182.605469 71.535156 C 180.976562 71.617188 179.351562 71.738281 177.730469 71.898438 C 176.105469 72.0625 174.488281 72.261719 172.875 72.503906 C 171.261719 72.742188 169.65625 73.023438 168.058594 73.34375 C 166.460938 73.664062 164.867188 74.023438 163.289062 74.417969 C 161.707031 74.816406 160.136719 75.253906 158.574219 75.726562 C 157.015625 76.203125 155.46875 76.714844 153.933594 77.265625 C 152.398438 77.816406 150.875 78.402344 149.371094 79.027344 C 147.863281 79.652344 146.375 80.3125 144.898438 81.011719 C 143.425781 81.710938 141.96875 82.441406 140.53125 83.210938 C 139.09375 83.980469 137.675781 84.785156 136.277344 85.625 C 134.878906 86.464844 133.503906 87.335938 132.148438 88.242188 C 130.792969 89.148438 129.460938 90.085938 128.148438 91.058594 C 126.839844 92.03125 125.554688 93.035156 124.292969 94.070312 C 123.035156 95.105469 121.800781 96.167969 120.589844 97.265625 C 119.382812 98.359375 118.203125 99.484375 117.050781 100.636719 C 115.898438 101.789062 114.773438 102.96875 113.675781 104.179688 C 112.582031 105.386719 111.515625 106.621094 110.484375 107.882812 C 109.449219 109.140625 108.445312 110.425781 107.472656 111.734375 C 106.5 113.046875 105.5625 114.378906 104.65625 115.734375 C 103.75 117.089844 102.878906 118.464844 102.039062 119.863281 C 101.199219 121.261719 100.394531 122.679688 99.625 124.121094 C 98.855469 125.558594 98.121094 127.011719 97.425781 128.488281 C 96.726562 129.960938 96.066406 131.449219 95.441406 132.957031 C 94.816406 134.460938 94.226562 135.984375 93.679688 137.519531 C 93.128906 139.054688 92.613281 140.601562 92.140625 142.160156 C 91.667969 143.722656 91.230469 145.292969 90.832031 146.875 C 90.433594 148.457031 90.078125 150.046875 89.757812 151.644531 C 89.4375 153.242188 89.15625 154.851562 88.917969 156.460938 C 88.675781 158.074219 88.476562 159.691406 88.3125 161.316406 C 88.152344 162.9375 88.03125 164.5625 87.949219 166.191406 C 87.867188 167.820312 87.824219 169.449219 87.824219 171.082031 C 93.300781 303.308594 281.710938 303.269531 287.167969 171.082031 C 287.164062 169.449219 287.125 167.820312 287.042969 166.191406 C 286.960938 164.5625 286.839844 162.9375 286.675781 161.316406 C 286.515625 159.691406 286.316406 158.074219 286.074219 156.460938 C 285.832031 154.847656 285.554688 153.242188 285.234375 151.644531 C 284.914062 150.042969 284.554688 148.453125 284.15625 146.875 C 283.761719 145.292969 283.324219 143.722656 282.851562 142.160156 C 282.375 140.601562 281.863281 139.054688 281.3125 137.519531 C 280.761719 135.984375 280.175781 134.460938 279.550781 132.957031 C 278.925781 131.449219 278.261719 129.960938 277.566406 128.484375 C 276.867188 127.011719 276.132812 125.554688 275.363281 124.117188 C 274.59375 122.679688 273.792969 121.261719 272.953125 119.863281 C 272.113281 118.464844 271.242188 117.089844 270.335938 115.734375 C 269.429688 114.378906 268.488281 113.046875 267.515625 111.734375 C 266.546875 110.425781 265.542969 109.140625 264.507812 107.878906 C 263.472656 106.621094 262.410156 105.386719 261.3125 104.179688 C 260.21875 102.96875 259.09375 101.789062 257.941406 100.636719 C 256.789062 99.484375 255.605469 98.359375 254.398438 97.261719 C 253.191406 96.167969 251.957031 95.101562 250.695312 94.070312 C 249.433594 93.035156 248.152344 92.03125 246.839844 91.058594 C 245.53125 90.085938 244.199219 89.148438 242.84375 88.242188 C 241.488281 87.335938 240.109375 86.464844 238.710938 85.625 C 237.3125 84.785156 235.894531 83.980469 234.457031 83.210938 C 233.019531 82.441406 231.5625 81.710938 230.089844 81.011719 C 228.617188 80.3125 227.125 79.652344 225.621094 79.027344 C 224.113281 78.402344 222.59375 77.816406 221.058594 77.265625 C 219.523438 76.714844 217.976562 76.203125 216.414062 75.726562 C 214.855469 75.253906 213.285156 74.816406 211.703125 74.417969 C 210.121094 74.023438 208.53125 73.664062 206.933594 73.34375 C 205.332031 73.023438 203.726562 72.742188 202.113281 72.503906 C 200.5 72.261719 198.882812 72.0625 197.261719 71.898438 C 195.636719 71.738281 194.011719 71.617188 192.382812 71.535156 C 190.753906 71.453125 189.125 71.410156 187.496094 71.410156 Z M 218.847656 235.617188 C 165.292969 236.789062 118.441406 187.347656 122.644531 133.820312 C 121.851562 113.375 142.492188 102.292969 160.3125 107.636719 C 160.917969 107.804688 161.433594 108.125 161.851562 108.59375 C 162.269531 109.0625 162.527344 109.605469 162.625 110.226562 L 169.121094 151.199219 C 168.953125 156.179688 160.601562 158.816406 156.585938 160.078125 C 157.402344 162.476562 158.355469 164.820312 159.441406 167.109375 C 160.527344 169.398438 161.738281 171.617188 163.078125 173.769531 C 164.417969 175.917969 165.875 177.984375 167.453125 179.96875 C 169.027344 181.953125 170.710938 183.839844 172.503906 185.628906 C 174.296875 187.421875 176.183594 189.105469 178.167969 190.679688 C 180.152344 192.253906 182.222656 193.710938 184.371094 195.050781 C 186.523438 196.386719 188.742188 197.601562 191.035156 198.683594 C 193.324219 199.769531 195.667969 200.71875 198.066406 201.535156 C 199.371094 197.347656 201.921875 189.164062 206.910156 188.988281 L 247.882812 195.480469 C 250.300781 195.679688 250.722656 198.773438 251.398438 200.5625 C 257.242188 221.0625 238.867188 238.113281 218.847656 235.617188 Z M 218.847656 235.617188 " fill-opacity="1" fill-rule="nonzero"/></g></svg>