<svg xmlns="http://www.w3.org/2000/svg" xmlns:xlink="http://www.w3.org/1999/xlink" width="500" zoomAndPan="magnify" viewBox="0 0 375 374.999991" height="500" preserveAspectRatio="xMidYMid meet" version="1.0"><defs><clipPath id="e20ac557a2"><path d="M 71.777344 71.777344 L 303.527344 71.777344 L 303.527344 303.527344 L 71.777344 303.527344 Z M 71.777344 71.777344 " clip-rule="nonzero"/></clipPath><clipPath id="ffbf2f6884"><path d="M 101 207 L 275 207 L 275 303.527344 L 101 303.527344 Z M 101 207 " clip-rule="nonzero"/></clipPath></defs><g clip-path="url(#e20ac557a2)"><path fill="#b3b3b3" d="M 303.539062 187.65625 C 303.539062 217.304688 292.414062 244.339844 274.09375 264.832031 C 252.878906 288.585938 222.019531 303.535156 187.660156 303.535156 C 153.300781 303.535156 122.429688 288.585938 101.222656 264.832031 C 82.90625 244.339844 71.78125 217.304688 71.78125 187.65625 C 71.78125 123.664062 123.65625 71.777344 187.660156 71.777344 C 251.652344 71.777344 303.539062 123.664062 303.539062 187.65625 " fill-opacity="1" fill-rule="nonzero"/></g><path fill="#f2f2f2" d="M 187.660156 209.003906 C 208.660156 209.003906 227.789062 185.242188 227.789062 159.148438 C 227.789062 134.5 223.023438 110.121094 187.660156 110.121094 C 152.292969 110.121094 147.523438 134.5 147.523438 159.148438 C 147.523438 185.242188 166.652344 209.003906 187.660156 209.003906 " fill-opacity="1" fill-rule="nonzero"/><g clip-path="url(#ffbf2f6884)"><path fill="#f2f2f2" d="M 274.09375 264.832031 C 252.878906 288.585938 222.019531 303.535156 187.660156 303.535156 C 153.300781 303.535156 122.429688 288.585938 101.222656 264.832031 C 100.855469 250.519531 110.386719 217.359375 159 207.152344 C 167.3125 215.640625 177.546875 220.441406 187.660156 220.441406 C 197.769531 220.441406 207.996094 215.640625 216.308594 207.152344 C 264.929688 217.359375 274.453125 250.519531 274.09375 264.832031 " fill-opacity="1" fill-rule="nonzero"/></g></svg>